# Rhino

g object_1
v 5.873479692193816 -6.002567157956317 0 1
v 3.420817842706286 -3.678992774231297 0 0.7071067811865476
v 1.097243458981264 -6.131654623718825 0 1
v -1.226330924743758 -8.584316473206355 0 0.7071067811865476
v 1.226330924743772 -10.90789085693138 0 1
v 3.678992774231301 -13.2314652406564 0 0.7071067811865476
v 6.002567157956324 -10.77880339116887 0 1
v 8.326141541681347 -8.32614154168134 0 0.7071067811865476
cstype rat bspline
deg 2
curv 0 21.22800733136907 1 2 3 4 5 6 7 8 1
parm u 0 0 0 5.307001832842267 5.307001832842267 10.61400366568453 \
 10.61400366568453 15.9210054985268 15.9210054985268 21.22800733136907 \
 21.22800733136907 21.22800733136907
end
g object_2
v -6.260742089481321 -3.291730376943788 0 1
v -9.746103665068862 0.06454373288125408 0 0.7071067811865476
v -13.1023777748939 -3.420817842706286 0 1
v -16.45865188471895 -6.906179418293825 0 0.7071067811865476
v -12.97329030913141 -10.26245352811887 0 1
v -9.487928733543868 -13.61872763794391 0 0.7071067811865476
v -6.131654623718823 -10.13336606235637 0 1
v -2.77538051389378 -6.648004486768832 0 0.7071067811865476
cstype rat bspline
deg 2
curv 0 30.40199654510866 9 10 11 12 13 14 15 16 9
parm u 0 0 0 7.600499136277165 7.600499136277165 15.20099827255433 \
 15.20099827255433 22.80149740883149 22.80149740883149 30.40199654510866 \
 30.40199654510866 30.40199654510866
end
g object_3
v -1.742680787793768 0.839068527456261 0
v 8.197054075918844 0.839068527456261 0
v 8.197054075918844 6.648004486768828 0
v -1.742680787793768 6.648004486768828 0
cstype bspline
deg 1
curv 0 31.49734164605036 17 18 19 20 17
parm u 0 0 9.939734863712612 15.74867082302518 25.68840568673779 31.49734164605036 \
 31.49734164605036
end
g object_4
v -12.45694044608139 0.9681559932187629 0
v -6.518917021006324 0.9681559932187629 0
v -6.518917021006324 7.035266884056331 0
v -12.45694044608139 7.035266884056331 0
cstype bspline
deg 1
curv 0 24.01026863182528 21 22 23 24 21
parm u 0 0 5.93802342507507 12.00513431591264 17.94315774098771 24.01026863182528 \
 24.01026863182528
end
